<svg width="24" height="24" viewBox="0 0 24 24" fill="none" xmlns="http://www.w3.org/2000/svg">
<path d="M10.086 12.5L3.29296 5.707C3.1108 5.51839 3.01001 5.26579 3.01229 5.00359C3.01456 4.7414 3.11973 4.49058 3.30514 4.30518C3.49055 4.11977 3.74136 4.0146 4.00356 4.01232C4.26575 4.01004 4.51836 4.11084 4.70696 4.293L11.5 11.086L18.293 4.293C18.4816 4.11084 18.7342 4.01004 18.9964 4.01232C19.2586 4.0146 19.5094 4.11977 19.6948 4.30518C19.8802 4.49058 19.9854 4.7414 19.9876 5.00359C19.9899 5.26579 19.8891 5.51839 19.707 5.707L12.914 12.5L19.707 19.293C19.8891 19.4816 19.9899 19.7342 19.9876 19.9964C19.9854 20.2586 19.8802 20.5094 19.6948 20.6948C19.5094 20.8802 19.2586 20.9854 18.9964 20.9877C18.7342 20.99 18.4816 20.8892 18.293 20.707L11.5 13.914L4.70696 20.707C4.61471 20.8025 4.50437 20.8787 4.38236 20.9311C4.26036 20.9835 4.12914 21.0111 3.99636 21.0122C3.86358 21.0134 3.7319 20.9881 3.60901 20.9378C3.48611 20.8875 3.37446 20.8133 3.28056 20.7194C3.18667 20.6255 3.11242 20.5138 3.06214 20.3909C3.01186 20.2681 2.98655 20.1364 2.98771 20.0036C2.98886 19.8708 3.01645 19.7396 3.06886 19.6176C3.12127 19.4956 3.19745 19.3852 3.29296 19.293L10.086 12.5Z" fill="#646D82"/>
</svg>
