<svg xmlns="http://www.w3.org/2000/svg" width="171" height="32" viewBox="0 0 171 32">
    <g fill="none" fill-rule="evenodd">
        <path fill="#040e28" d="M31.009 22.809l-3.751-7.8h4.697c1.971 0 3.51-.93 3.51-2.998 0-2.069-1.539-2.999-3.51-2.999h-7.58L21.49 3.016h-.505H31.91c4.954 0 9.545 3.066 9.545 8.995 0 4.049-2.519 6.473-5.42 7.959l4.4 8.142A1.28 1.28 0 0 1 39.31 30h-4.308l-3.993-7.191zM26.48 30h-6 6zm71.165-10.994v-6.485c0-.993.23-1.972.674-2.86l2.872-5.751a1.615 1.615 0 0 1 1.445-.894c.551 0 .998.447.998 1v14.99a4.994 4.994 0 0 0 4.991 4.998 4.994 4.994 0 0 0 4.991-4.998V4.296c0-.707.572-1.28 1.278-1.28h3.433c.706 0 1.278.573 1.278 1.28v14.71c0 6.072-4.916 10.994-10.98 10.994s-10.98-4.922-10.98-10.994zm60.555 1h-2.181v4.212L153.025 30h-1.716a1.278 1.278 0 0 1-1.278-1.28V3.017h14.414c.829 0 1.566.395 2.033 1.008l-2.583 4.988h-7.875v4.997h5.287l-3.106 5.997zM167 5.574v3.438-3.438zm-31.094-2.558c4.954 0 9.545 3.066 9.545 8.995 0 4.049-2.519 6.473-5.42 7.959l4.4 8.142A1.28 1.28 0 0 1 143.307 30h-3.557c-.464 0-.891-.252-1.117-.658l-4.629-8.337h-3.526v7.716c0 .706-.572 1.279-1.277 1.279h-3.446a1.278 1.278 0 0 1-1.278-1.28V4.296c0-.706.572-1.28 1.278-1.28h10.15zm-5.428 5.996v5.997h5.474c1.971 0 3.51-.93 3.51-2.998 0-2.069-1.539-2.999-3.51-2.999h-5.474zM77.143 4.925c1.697-1.399 3.793-1.998 6.189-1.899 2.396 0 4.492.5 6.189 1.7.599.4.798 1.199.499 1.798l-1.298 2.699c-.2.4-.798.5-1.198.2-.998-.9-2.295-1.3-3.992-1.3-1.897 0-3.195.9-3.195 2.1 0 .899.2 1.398.999 1.898.399.3.898.4 1.197.6l1.897.6c.898.3 1.697.5 2.296.799 4.891 1.799 6.788 3.998 6.788 7.795 0 4.798-3.294 7.996-9.783 7.996-3.493 0-6.288-1-8.285-2.599-.599-.4-.698-1.199-.399-1.799l1.497-2.998c.2-.5.899-.5 1.298-.1 1.397 1.6 3.394 2.399 5.89 2.399 2.595 0 3.892-1.2 3.892-2.599 0-1-.499-1.699-1.397-2.198-.5-.4-1.597-.8-2.296-1-.599-.3-2.096-.8-2.895-1.1-4.092-1.498-6.388-3.697-6.388-7.595 0-2.298.798-4.097 2.495-5.397zm-32.857-.063a1.28 1.28 0 0 1 1.146-1.846H70.01c.705 0 1.277.573 1.277 1.28v3.437c0 .707-.572 1.28-1.277 1.28h-8.704V28.72c0 .706-.572 1.279-1.278 1.279h-3.434a1.278 1.278 0 0 1-1.278-1.28V9.013h-7.395c-.973 0-1.86-.552-2.291-1.425l-1.345-2.725zm-16.683 23.15a1.28 1.28 0 0 1-1.134 1.868h-4.407c-.51 0-.97-.303-1.173-.772l-1.026-2.381H7.96L6.866 29.13a1.278 1.278 0 0 1-1.163.75H1.278a1.28 1.28 0 0 1-1.134-1.868L12.739 3.69a1.278 1.278 0 0 1 2.269 0l12.595 24.321zM10.724 20.42h6.299l-3.15-6.306-3.149 6.306z"/>
        <rect width="6" height="6" x="165" y="24" fill="#FF6D5C" rx="1"/>
    </g>
</svg>
