<svg xmlns="http://www.w3.org/2000/svg" xmlns:xlink="http://www.w3.org/1999/xlink" viewBox="0 0 24 20">
  <defs>
    <path d="M15 2a1 1 0 01.832.445L17.535 5H21a3 3 0 013 3v11a3 3 0 01-3 3H3a3 3 0 01-3-3V8a3 3 0 013-3h3.465l1.703-2.555A1 1 0 019 2h6zm-.535 2h-4.93L7.832 6.555A1 1 0 017 7H3a1 1 0 00-1 1v11a1 1 0 001 1h18a1 1 0 001-1V8a1 1 0 00-1-1h-4a1 1 0 01-.832-.445L14.465 4zM12 8a5 5 0 110 10 5 5 0 010-10zm0 2a3 3 0 100 6 3 3 0 000-6z" id="a"/>
  </defs>
  <use fill-rule="nonzero" xlink:href="#a" transform="translate(0 -2)"/>
</svg>