<svg xmlns="http://www.w3.org/2000/svg" xmlns:xlink="http://www.w3.org/1999/xlink" viewBox="0 0 16 15">
  <defs>
    <path d="M1.9 2.225c.4-.3 1.1-.3 1.5 0l12.6 12.8c.4.4.4 1 0 1.4-.4.4-1 .4-1.4 0L1.9 3.725c-.3-.4-.3-1.1 0-1.5zm1.5 4.3l1.7 1.8c0 .3-.1.6-.1 1 0 2.2 1.8 4 4 4 .343 0 .612 0 .871-.126l.129-.074 1.5 1.5c-.8.4-1.7.7-2.5.7-4 0-8-6-8-6s.9-1.4 2.4-2.8zm5.6-3.2c4 0 8 6 8 6s-.832 1.294-2.14 2.639l-.16.161-1.8-1.8c0-.3.1-.6.1-1 0-2.2-1.8-4-4-4-.24 0-.544.064-.81.14l-.19.06-1.5-1.5c.8-.4 1.7-.7 2.5-.7z" id="a"/>
  </defs>
  <use xlink:href="#a" transform="translate(-1 -2)" fill-rule="evenodd"/>
</svg>