<svg xmlns="http://www.w3.org/2000/svg" xmlns:xlink="http://www.w3.org/1999/xlink" viewBox="0 0 16 18">
  <defs>
    <path d="M10 0a3 3 0 013 3v1h3a1 1 0 010 2h-1v10a2 2 0 01-2 2H5a2 2 0 01-2-2V6H2a1 1 0 110-2h3V3a3 3 0 013-3h2zm0 2H8a1 1 0 00-1 1v1h4V3a1 1 0 00-1-1z" id="a"/>
  </defs>
  <g transform="translate(-1)" fill="none" fill-rule="evenodd">
    <mask id="b" fill="#fff">
      <use xlink:href="#a"/>
    </mask>
    <use fill="#D8D8D8" xlink:href="#a"/>
    <g mask="url(#b)" fill="#dbdfe6">
      <path d="M0 0h18v18H0z"/>
    </g>
  </g>
</svg>